<svg width="40" height="40" viewBox="0 0 40 40" fill="none" xmlns="http://www.w3.org/2000/svg">
<path d="M29.245 20.835C29.7609 20.835 30.1793 20.4167 30.1793 19.9008C30.1793 19.3849 29.7609 18.9666 29.245 18.9666C28.7291 18.9666 28.3108 19.3849 28.3108 19.9008C28.3108 20.4167 28.7291 20.835 29.245 20.835Z" fill="#C54EFD" stroke="#C54EFD" stroke-width="1.6875" stroke-linecap="round" stroke-linejoin="round"/>
<path d="M19.9045 20.835C20.4203 20.835 20.8387 20.4167 20.8387 19.9008C20.8387 19.3849 20.4203 18.9666 19.9045 18.9666C19.3886 18.9666 18.9702 19.3849 18.9702 19.9008C18.9702 20.4167 19.3886 20.835 19.9045 20.835Z" fill="#C54EFD" stroke="#C54EFD" stroke-width="1.6875" stroke-linecap="round" stroke-linejoin="round"/>
<path d="M10.5606 20.835C11.0765 20.835 11.4948 20.4167 11.4948 19.9008C11.4948 19.3849 11.0765 18.9666 10.5606 18.9666C10.0446 18.9666 9.62634 19.3849 9.62634 19.9008C9.62634 20.4167 10.0446 20.835 10.5606 20.835Z" fill="#C54EFD" stroke="#C54EFD" stroke-width="1.6875" stroke-linecap="round" stroke-linejoin="round"/>
<path d="M19.9033 38.5868C30.2225 38.5868 38.5881 30.2213 38.5881 19.9021C38.5881 9.58274 30.2225 1.21729 19.9033 1.21729C9.58396 1.21729 1.21851 9.58274 1.21851 19.9021C1.21851 23.3053 2.1284 26.4961 3.71819 29.2445L2.15274 37.6526L10.5609 36.0872C13.3092 37.6769 16.5 38.5868 19.9033 38.5868Z" stroke="#C54EFD" stroke-width="1.6875" stroke-linecap="round" stroke-linejoin="round"/>
</svg>
