<svg width="54" height="54" viewBox="0 0 54 54" fill="none" xmlns="http://www.w3.org/2000/svg">
<path d="M44.1188 34.2311C42.9363 37.0275 41.0868 39.4916 38.732 41.4081C36.3772 43.3246 33.5888 44.635 30.6106 45.2249C27.6323 45.8147 24.5549 45.6661 21.6474 44.7918C18.7399 43.9176 16.0908 42.3444 13.9317 40.2099C11.7727 38.0753 10.1693 35.4444 9.26197 32.547C8.35459 29.6497 8.17078 26.5742 8.7266 23.5894C9.28241 20.6046 10.5609 17.8014 12.4504 15.4249C14.3399 13.0484 16.7827 11.1709 19.5654 9.95654" stroke="#1DC5F8" stroke-width="2.34783" stroke-linecap="round" stroke-linejoin="round"/>
<path d="M45.5784 27.001C45.5784 24.5601 45.0977 22.1432 44.1636 19.8881C43.2295 17.633 41.8604 15.584 40.1344 13.8581C38.4085 12.1321 36.3595 10.763 34.1044 9.82891C31.8493 8.89483 29.4323 8.41406 26.9915 8.41406V27.001H45.5784Z" stroke="#1DC5F8" stroke-width="2.34783" stroke-linecap="round" stroke-linejoin="round"/>
</svg>
